Coordinates
version=1
nRows=13
nColumns=40
inDegrees=yes

Units are S.I. units (second, meters, Newtons, ...)
Angles are in degrees.

endheader
time	pelvis_tilt	pelvis_list	pelvis_rotation	pelvis_tx	pelvis_ty	pelvis_tz	hip_flexion_r	hip_adduction_r	hip_rotation_r	knee_angle_r	knee_angle_r_beta	ankle_angle_r	subtalar_angle_r	mtp_angle_r	hip_flexion_l	hip_adduction_l	hip_rotation_l	knee_angle_l	knee_angle_l_beta	ankle_angle_l	subtalar_angle_l	mtp_angle_l	lumbar_extension	lumbar_bending	lumbar_rotation	arm_flex_r	arm_add_r	arm_rot_r	elbow_flex_r	pro_sup_r	wrist_flex_r	wrist_dev_r	arm_flex_l	arm_add_l	arm_rot_l	elbow_flex_l	pro_sup_l	wrist_flex_l	wrist_dev_l
     43.37500000	     -3.23388115	     -4.76718569	     -2.62761227	      1.09318756	      0.92892837	      0.45940989	     16.46391080	      1.47189523	    -11.32311011	     17.70557896	     17.70557896	      5.78545973	     -2.31189555	     -5.59663735	      5.61101176	    -12.40854057	    -10.18136364	     33.81348688	     33.81348688	     13.76808851	    -13.18659630	     -5.54145403	     -8.38739299	      5.57207449	      1.43449613	      2.34250943	    -14.92702259	      0.38654073	     40.23181243	     45.48345693	      0.00000000	      0.00000000	     12.75380758	    -14.12504492	    -13.73727614	     49.79321494	     46.80940147	      0.00000000	      0.00000000
     43.38857143	     -3.29516834	     -4.87506240	     -2.20775103	      1.09372585	      0.92918851	      0.46235276	     15.95330219	      1.71474515	    -11.81350314	     17.46414036	     17.46414036	      6.09831773	     -2.17683451	     -5.73321247	      7.47407783	    -13.06205303	     -8.90664811	     37.33426034	     37.33426034	     12.03838426	    -14.55408185	     -6.28060001	     -8.13263529	      5.70366496	      0.73083393	      3.81677657	    -15.12505852	      0.24060749	     42.05292086	     45.43265517	      0.00000000	      0.00000000	     11.55851891	    -13.91784505	    -13.51275697	     47.13067866	     46.75081241	      0.00000000	      0.00000000
     43.40214286	     -3.12063745	     -4.95849057	     -1.85756004	      1.09411231	      0.92957145	      0.46522779	     15.25879412	      1.92227215	    -12.23292300	     17.34784322	     17.34784322	      6.46824305	     -1.96537072	     -6.02594048	      9.06631282	    -13.64115530	     -7.75010281	     40.71688779	     40.71688779	      9.58022985	    -16.13497815	     -8.15641753	     -8.23989598	      5.77600103	      1.53653708	      3.79939443	    -16.23837731	      0.59677553	     46.24674177	     45.27184121	      0.00000000	      0.00000000	     12.50330519	    -13.01813768	    -12.91889363	     41.78866918	     46.65437574	      0.00000000	      0.00000000
     43.41571429	     -2.94239110	     -5.13640021	     -1.47661566	      1.09422696	      0.92979331	      0.46801136	     14.60074042	      2.24144364	    -12.60206141	     17.27864327	     17.27864327	      6.86001629	     -1.93032707	     -6.13977119	     10.89005173	    -14.30532978	     -6.51322987	     44.42026717	     44.42026717	      7.81771641	    -16.97335316	     -8.05575569	     -8.38978404	      5.89558748	      1.32016740	      5.51653996	    -16.57555408	      0.28388006	     47.56283556	     45.25018985	      0.00000000	      0.00000000	     11.34073291	    -12.62990973	    -12.68639891	     40.50993441	     46.60558033	      0.00000000	      0.00000000
     43.42928571	     -2.75101875	     -5.28967700	     -1.14255149	      1.09409341	      0.92990866	      0.47065347	     13.99534948	      2.53237749	    -12.92382184	     17.29554244	     17.29554244	      7.25911511	     -1.90990900	     -6.26453190	     12.74714707	    -14.85937859	     -5.25590254	     48.05316595	     48.05316595	      5.98274114	    -17.67693552	     -7.69725026	     -8.61889701	      6.00421544	      1.20864930	      7.41127391	    -17.01737745	      0.01504671	     49.04769091	     45.22044948	      0.00000000	      0.00000000	     10.34647475	    -12.19893414	    -12.43866275	     39.17741130	     46.55680854	      0.00000000	      0.00000000
     43.44285714	     -2.76524798	     -5.24701975	     -0.75291631	      1.09367127	      0.92968429	      0.47282064	     13.73439892	      2.53264502	    -13.32448738	     17.50965040	     17.50965040	      7.74001260	     -1.78115327	     -6.24607781	     15.04032649	    -14.93912631	     -3.71822801	     51.88138470	     51.88138470	      5.70282055	    -17.78353271	     -3.09323044	     -8.56613411	      5.97597378	      1.53497748	      7.32770927	    -18.21411020	      0.66521397	     54.72014913	     45.00915876	      0.00000000	      0.00000000	     10.88743667	    -11.71823342	    -11.15814674	     33.84494203	     46.38974469	      0.00000000	      0.00000000
     43.45642857	     -2.71776823	     -5.35751057	     -0.38538042	      1.09315158	      0.92944431	      0.47504384	     13.37133208	      2.75138181	    -13.58527002	     17.61883603	     17.61883603	      8.12556927	     -1.89950574	     -6.30898435	     17.07257628	    -15.25866642	     -2.46988704	     55.09366133	     55.09366133	      4.12954618	    -18.10889337	     -2.24173792	     -8.56775797	      6.02949578	      1.19746350	      9.13827937	    -18.38225050	      0.22457891	     56.49384851	     44.97922187	      0.00000000	      0.00000000	      9.61749392	    -11.38325840	    -10.86286596	     32.52900135	     46.32886045	      0.00000000	      0.00000000
     43.47000000	     -2.60283656	     -5.32357211	     -0.08858858	      1.09237837	      0.92937727	      0.47694366	     13.05208459	      2.77896258	    -13.78357493	     17.93062533	     17.93062533	      8.68913407	     -1.93242761	     -6.10225986	     19.04841188	    -15.18920532	     -1.19524494	     58.19619024	     58.19619024	      4.17115956	    -18.01924155	      2.66501992	     -8.81932773	      5.98139453	      1.64450054	      9.92506948	    -19.44032621	      0.21502612	     60.75455383	     44.86502190	      0.00000000	      0.00000000	      9.38898662	    -10.83829950	     -9.67511629	     29.85170682	     46.16223871	      0.00000000	      0.00000000
     43.48357143	     -2.59392304	     -5.36039688	      0.22315979	      1.09154196	      0.92919272	      0.47885638	     12.76457776	      2.91527864	    -13.95932406	     18.04529890	     18.04529890	      9.04324990	     -2.06309933	     -6.13196082	     20.90466983	    -15.31267304	     -0.25741295	     60.55541361	     60.55541361	      3.03723318	    -18.18739171	      3.41635117	     -8.85623483	      5.95601611	      1.38102881	     11.89349284	    -19.57978891	     -0.23342966	     62.60129020	     44.83485871	      0.00000000	      0.00000000	      8.14628526	    -10.47358969	     -9.36668216	     28.76563790	     46.09773362	      0.00000000	      0.00000000
     43.49714286	     -2.55336555	     -5.28230415	      0.49688992	      1.09056852	      0.92918055	      0.48049800	     12.49375192	      2.90161542	    -14.09811326	     18.25880801	     18.25880801	      9.60749350	     -2.08761566	     -5.73499676	     22.69291490	    -15.18198926	      0.58574089	     62.63420773	     62.63420773	      3.40687977	    -18.03715052	      7.33940157	     -9.02526300	      5.85215699	      1.88398361	     12.78782695	    -20.30904566	     -1.02132558	     66.53574417	     44.81639744	      0.00000000	      0.00000000	      7.58461255	    -10.07808775	     -7.19354122	     26.93867269	     45.78432440	      0.00000000	      0.00000000
     43.51071429	     -2.51747718	     -5.21919263	      0.74281778	      1.08957580	      0.92935080	      0.48208282	     12.10898827	      2.94681630	    -14.18671441	     18.20715144	     18.20715144	      9.88702590	     -2.18026415	     -5.76557757	     24.17485895	    -15.19083528	      1.03737911	     63.85555956	     63.85555956	      2.77787046	    -18.19591289	      7.49350760	     -9.12443851	      5.70462885	      2.10701640	     14.81668915	    -20.80026354	     -1.40860940	     67.84650362	     44.79851235	      0.00000000	      0.00000000	      6.49198660	     -9.52563463	     -7.05234758	     26.38871054	     45.74377202	      0.00000000	      0.00000000
     43.52428571	     -2.61223430	     -5.17162428	      1.10451027	      1.08840794	      0.92930602	      0.48344528	     11.87115132	      2.99342287	    -14.33066551	     18.14631637	     18.14631637	     10.17310345	     -2.38718805	     -5.70394384	     25.80997633	    -15.14420691	      1.49724308	     64.67874269	     64.67874269	      2.71313162	    -18.29657735	      8.17735794	     -9.12651295	      5.61654729	      1.37261348	     16.73964043	    -20.55131403	     -1.47672057	     71.05834638	     44.71084124	      0.00000000	      0.00000000	      4.94679650	     -9.29425192	     -6.72619896	     25.48728695	     45.66965004	      0.00000000	      0.00000000
     43.53785714	     -2.66063073	     -5.11966177	      1.42816195	      1.08722735	      0.92957899	      0.48472097	     11.51976978	      3.04686508	    -14.47614161	     17.95981169	     17.95981169	     10.34593703	     -2.48647358	     -5.58285820	     27.21277831	    -15.10577455	      1.73689381	     64.86171121	     64.86171121	      2.95153792	    -18.38877539	      9.01259862	     -9.17888722	      5.49202160	      1.27289992	     18.40586921	    -20.82787758	     -1.60291426	     74.12633688	     44.63226552	      0.00000000	      0.00000000	      3.68678390	     -8.88471708	     -6.34457265	     25.00911655	     45.58716208	      0.00000000	      0.00000000
